# xmcd
# 
# Track frame offsets:
#     150
#     16242
#     27647
#     37742
#     54522
#     68300
#     90450
#     102462
#     118647
#     136482
#     150747
#     162427
#     179472
#     193875
#     208534
#     222567
# 
# Disc length: 3158
# 
# Revision: 1
# Processed by: cddbd v1.5.2PL0 Copyright (c) Steve Scherf et al.
# Submitted via: fre:ac v1.0.17
# 
DISCID=de0c5410
DTITLE=Souvarit - Lapin kaipuu
DYEAR=0
DGENRE=
TTITLE0=Kukka Tenolle
TTITLE1=Ystävän laulu
TTITLE2=Oi jos sulttaani oisin
TTITLE3=Paluutie elämään
TTITLE4=Hei tyttö
TTITLE5=Lapin kesä
TTITLE6=Yö pustalla
TTITLE7=kylmä rakkaus
TTITLE8=Kurjet
TTITLE9=Partisaanivalssi
TTITLE10=Varisevat lehdet
TTITLE11=Unen maailmaan en kaipaa
TTITLE12=Maarit
TTITLE13=Olos humppa
TTITLE14=Lapin kutsu
TTITLE15=Kulkijan kultamaa
EXTD=
EXTT0=
EXTT1=
EXTT2=
EXTT3=
EXTT4=
EXTT5=
EXTT6=
EXTT7=
EXTT8=
EXTT9=
EXTT10=
EXTT11=
EXTT12=
EXTT13=
EXTT14=
EXTT15=
PLAYORDER=
